# xmcd
#
# Track frame offsets: 
#        150
#        1707
#        24125
#        40515
#        43312
#        61942
#        64512
#        78500
#        80732
#        110587
#        111755
#        126360
#        127867
#        155485
#        158592
#        177315
#        200145
#        202437
#        221837
#        223987
#
# Disc length: 3331 seconds
#
# Revision: 3
# Processed by: cddbd v1.5.2PL0 Copyright (c) Steve Scherf et al.
# Submitted via: ExactAudioCopy v1.3
#
DISCID=1f0d0114
DTITLE=Pinetop Perkins - Portrait of a Delta Bluesman
DYEAR=1993
DGENRE=Blues
TTITLE0=Beginnings
TTITLE1=Come Back Baby
TTITLE2=Big Fat Mama
TTITLE3=The Chimney Story
TTITLE4=Baby, What You Want Me To Do
TTITLE5=Pinetop's First Band
TTITLE6=Chicago Stomp
TTITLE7=Stabbed by an Angry Woman
TTITLE8=Chains of Love
TTITLE9=Earning His Name
TTITLE10=Pinetop's Boogie Woogie
TTITLE11=Delta Ramblings
TTITLE12=Grindin' Man
TTITLE13=The Wolf and the Mule
TTITLE14=Forty-four
TTITLE15=When I Lost My Baby
TTITLE16=Early Piano Influences
TTITLE17=Caldonia
TTITLE18=Joining Muddy Waters' Band
TTITLE19=Pinetop's Blues
EXTD=
EXTT0=
EXTT1=
EXTT2=
EXTT3=
EXTT4=
EXTT5=
EXTT6=
EXTT7=
EXTT8=
EXTT9=
EXTT10=
EXTT11=
EXTT12=
EXTT13=
EXTT14=
EXTT15=
EXTT16=
EXTT17=
EXTT18=
EXTT19=
PLAYORDER=
